# xmcd
#
# Track frame offsets:
#	150
#	12605
#	35325
#	48621
#	66162
#	86176
#	104024
#	126351
#	141329
#	151811
#	171600
#	188546
#	208284
#
# Disc length: 3041 seconds
#
# Revision: 1
# Processed by: cddbd v1.4PL0 Copyright (c) Steve Scherf et al.
# Submitted via: CDmax 2.0
#
DISCID=c80bdf0d
DTITLE=Mississippi Mud
DYEAR=2002
DGENRE=Blues
TTITLE0=All Ya Need
TTITLE1=She's Red Hot
TTITLE2=Evenin' Sun
TTITLE3=Roll, Roll, Roll
TTITLE4=That's Your Dadda Yaddy Yo
TTITLE5=Fender Bender
TTITLE6=Everything's Alright
TTITLE7=Folsom Prison Blues
TTITLE8=Jackson Stomp
TTITLE9=West Texas Rain
TTITLE10=On The High Road
TTITLE11=Don't Loose Your Cool
TTITLE12=Lonesome Road
EXTD=
EXTT0=
EXTT1=
EXTT2=
EXTT3=
EXTT4=
EXTT5=
EXTT6=
EXTT7=
EXTT8=
EXTT9=
EXTT10=
EXTT11=
EXTT12=
PLAYORDER=
